<svg width="17" height="17" viewBox="0 0 17 17" fill="none" xmlns="http://www.w3.org/2000/svg">
<g id="material-symbols:password">
<path id="Vector" d="M1.41659 13.4583V12.0417H15.5833V13.4583H1.41659ZM2.23117 9.17292L1.31034 8.64167L1.91242 7.57917H0.708252V6.51667H1.91242L1.31034 5.48958L2.23117 4.95833L2.83325 5.98542L3.43534 4.95833L4.35617 5.48958L3.75409 6.51667H4.95825V7.57917H3.75409L4.35617 8.64167L3.43534 9.17292L2.83325 8.11042L2.23117 9.17292ZM7.89783 9.17292L6.977 8.64167L7.57908 7.57917H6.37492V6.51667H7.57908L6.977 5.48958L7.89783 4.95833L8.49992 5.98542L9.102 4.95833L10.0228 5.48958L9.42075 6.51667H10.6249V7.57917H9.42075L10.0228 8.64167L9.102 9.17292L8.49992 8.11042L7.89783 9.17292ZM13.5645 9.17292L12.6437 8.64167L13.2458 7.57917H12.0416V6.51667H13.2458L12.6437 5.48958L13.5645 4.95833L14.1666 5.98542L14.7687 4.95833L15.6895 5.48958L15.0874 6.51667H16.2916V7.57917H15.0874L15.6895 8.64167L14.7687 9.17292L14.1666 8.11042L13.5645 9.17292Z" fill="white"/>
</g>
</svg>
